<?xml version="1.0" encoding="utf-8"?>
<!-- Generator: Adobe Illustrator 19.1.0, SVG Export Plug-In . SVG Version: 6.00 Build 0)  -->
<!DOCTYPE svg PUBLIC "-//W3C//DTD SVG 1.1//EN" "http://www.w3.org/Graphics/SVG/1.1/DTD/svg11.dtd">
<svg version="1.1" xmlns="http://www.w3.org/2000/svg" xmlns:xlink="http://www.w3.org/1999/xlink" x="0px" y="0px" width="200px"
	 height="200px" viewBox="0 0 200 200" style="enable-background:new 0 0 200 200;" xml:space="preserve">
<style type="text/css">
	.st0{fill:#FFDFEB;stroke:#FFFFFF;stroke-miterlimit:10;}
</style>
<g id="Layer_2">
	<circle class="st0" cx="99.8" cy="100.1" r="61.8"/>
</g>
<g id="Layer_1">
	<g id="j4LS7N_1_">
		<g>
			<path d="M99,34.9c23.8,1.1,41.9,9.3,55,27.6c7.1,9.9,10.7,20.7,11.4,32.7c0.6,9.3-0.8,18.3-4.2,26.9
				c-6.4,16.1-16.6,29.2-32.7,36.7c-14.3,6.6-29.2,8.1-44.6,4.3c-13.9-3.4-25.6-10.8-34.7-21.7C37.5,127.1,32.7,110.4,35,92.1
				c1.5-12,6.5-22.8,14.2-32.3c9.2-11.3,20.8-19,34.8-22.5C89.5,35.9,95.2,35.5,99,34.9z M156.6,101.3
				c-0.4-31.7-26.3-57.8-60.4-56.2c-29.8,1.4-55,26.4-54.2,58.7c0.8,31,27,56.4,59.3,55.1C132,157.5,157.1,132.5,156.6,101.3z"/>
			<path d="M100.9,135.4c-12.5,0.2-22.3-4.2-30-12.4c-4.3-4.6-7.7-10.2-11.5-15.3c-0.9-1.3-1.8-2.7-3-3.7c-2.7-2.3-3.3-3.9-1.6-7.1
				c1.1-2.2,2.6-4.2,4.2-6c0.9-0.9,2.8-1.6,3.9-1.3c1.1,0.4,2.5,2.2,2.5,3.4c0,15.1,15.8,31,31.3,33c12.3,1.6,22.5-2.2,30.9-11.6
				c4.1-4.6,6.5-10.1,8.9-15.6c0.7-1.7,0.1-3.9,0.5-5.9c0.2-1.2,0.8-3,1.8-3.4c0.9-0.4,3.1,0.3,3.6,1.1c2,3.2,3.7,6.7,5.2,10.2
				c0.6,1.4-0.1,2.6-1.9,3.1c-1.1,0.3-2.2,1.4-2.7,2.4c-3.8,8.1-8.6,15.3-16.2,20.4C118.6,132.5,109.9,135.9,100.9,135.4z"/>
			<path d="M89.5,77.5c-0.9,2.5-1.3,4.8-2.4,6.7c-1.6,2.7-4.5,2.8-6.6,0.4c-3.1-3.2-3.6-11.6-1-15.2c1.9-2.7,5.4-2.8,7,0.1
				C87.8,72,88.5,74.8,89.5,77.5z"/>
		</g>
	</g>
	<g>
		<g>
			<path d="M108.1,80.3c2.9-2.4,5.8-5.2,9-7.1c5.8-3.5,10.8,1.3,12.2,6.8c0.5,1.9,3.4,1.1,2.9-0.8c-1.2-4.7-5.3-10.5-10.6-10.6
				c-5.9-0.1-11.4,6.2-15.6,9.6C104.5,79.4,106.6,81.5,108.1,80.3L108.1,80.3z"/>
		</g>
	</g>
	<g>
		<g>
			<path d="M108.4,81.7c4.6-5.3,17.8-12.7,20.1-1.3c0.9-0.4,1.8-0.8,2.7-1.2c-3.2-4.4-5.1-6.2-10.6-6.4c-2.4-0.1-4.6,0.2-6.8,1.2
				c-2.9,1.4-4.8,4.3-8.2,4.8c-1.9,0.3-1.1,3.2,0.8,2.9c3.6-0.5,5.5-3.5,8.7-5c2.3-1,4.6-1.1,7.1-0.9c3.4,0.3,4.4,2.1,6.3,4.8
				c1,1.4,3.1,0.6,2.7-1.2c-2.8-13.8-18.9-7.2-25.1,0C105,81,107.1,83.1,108.4,81.7L108.4,81.7z"/>
		</g>
	</g>
</g>
</svg>
